<mxfile host="app.diagrams.net" agent="Mozilla/5.0 (Windows NT 10.0; Win64; x64) AppleWebKit/537.36 (KHTML, like Gecko) Chrome/134.0.0.0 Safari/537.36" version="26.1.1">
  <diagram name="PÃ¡gina-1" id="-kl5k6RUrYPOvD_SaZDC">
    <mxGraphModel dx="1050" dy="557" grid="1" gridSize="10" guides="1" tooltips="1" connect="1" arrows="1" fold="1" page="1" pageScale="1" pageWidth="827" pageHeight="1169" math="0" shadow="0">
      <root>
        <mxCell id="0" />
        <mxCell id="1" parent="0" />
        <mxCell id="alPxiXhLDoP2k3WgBXd--22" style="edgeStyle=orthogonalEdgeStyle;rounded=0;orthogonalLoop=1;jettySize=auto;html=1;exitX=1;exitY=0.75;exitDx=0;exitDy=0;entryX=0.25;entryY=1;entryDx=0;entryDy=0;endArrow=none;startFill=0;fillColor=#6a00ff;strokeColor=#3700CC;" edge="1" parent="1" source="alPxiXhLDoP2k3WgBXd--1" target="alPxiXhLDoP2k3WgBXd--3">
          <mxGeometry relative="1" as="geometry" />
        </mxCell>
        <mxCell id="alPxiXhLDoP2k3WgBXd--26" style="edgeStyle=orthogonalEdgeStyle;rounded=0;orthogonalLoop=1;jettySize=auto;html=1;exitX=1;exitY=0.5;exitDx=0;exitDy=0;entryX=0;entryY=0.5;entryDx=0;entryDy=0;endArrow=none;startFill=0;fillColor=#d80073;strokeColor=#A50040;" edge="1" parent="1" source="alPxiXhLDoP2k3WgBXd--1" target="alPxiXhLDoP2k3WgBXd--3">
          <mxGeometry relative="1" as="geometry" />
        </mxCell>
        <mxCell id="alPxiXhLDoP2k3WgBXd--27" style="edgeStyle=orthogonalEdgeStyle;rounded=0;orthogonalLoop=1;jettySize=auto;html=1;exitX=1;exitY=0.25;exitDx=0;exitDy=0;entryX=0;entryY=0.25;entryDx=0;entryDy=0;endArrow=none;startFill=0;fillColor=#76608a;strokeColor=#432D57;" edge="1" parent="1" source="alPxiXhLDoP2k3WgBXd--1" target="alPxiXhLDoP2k3WgBXd--3">
          <mxGeometry relative="1" as="geometry" />
        </mxCell>
        <mxCell id="alPxiXhLDoP2k3WgBXd--28" style="edgeStyle=orthogonalEdgeStyle;rounded=0;orthogonalLoop=1;jettySize=auto;html=1;exitX=1;exitY=0;exitDx=0;exitDy=0;entryX=0;entryY=0;entryDx=0;entryDy=0;endArrow=none;startFill=0;fillColor=#e3c800;strokeColor=#B09500;" edge="1" parent="1" source="alPxiXhLDoP2k3WgBXd--1" target="alPxiXhLDoP2k3WgBXd--3">
          <mxGeometry relative="1" as="geometry" />
        </mxCell>
        <mxCell id="alPxiXhLDoP2k3WgBXd--1" value="ESP32" style="rounded=1;whiteSpace=wrap;html=1;arcSize=16;rotation=-90;labelPosition=center;verticalLabelPosition=middle;align=center;verticalAlign=middle;textDirection=vertical-rl;fillColor=#647687;fontColor=#ffffff;strokeColor=#314354;" vertex="1" parent="1">
          <mxGeometry x="300" y="290" width="180" height="110" as="geometry" />
        </mxCell>
        <mxCell id="alPxiXhLDoP2k3WgBXd--24" style="edgeStyle=orthogonalEdgeStyle;rounded=0;orthogonalLoop=1;jettySize=auto;html=1;exitX=1;exitY=0.5;exitDx=0;exitDy=0;entryX=0.5;entryY=0;entryDx=0;entryDy=0;endArrow=none;startFill=0;" edge="1" parent="1" source="alPxiXhLDoP2k3WgBXd--3" target="alPxiXhLDoP2k3WgBXd--19">
          <mxGeometry relative="1" as="geometry" />
        </mxCell>
        <mxCell id="alPxiXhLDoP2k3WgBXd--3" value="AD8232" style="whiteSpace=wrap;html=1;aspect=fixed;fillColor=#e51400;fontColor=#ffffff;strokeColor=#B20000;" vertex="1" parent="1">
          <mxGeometry x="460" y="120" width="80" height="80" as="geometry" />
        </mxCell>
        <mxCell id="alPxiXhLDoP2k3WgBXd--29" style="edgeStyle=orthogonalEdgeStyle;rounded=0;orthogonalLoop=1;jettySize=auto;html=1;exitX=1;exitY=0.5;exitDx=0;exitDy=0;exitPerimeter=0;entryX=0.25;entryY=0;entryDx=0;entryDy=0;endArrow=none;startFill=0;fillColor=#008a00;strokeColor=#005700;" edge="1" parent="1" source="alPxiXhLDoP2k3WgBXd--4" target="alPxiXhLDoP2k3WgBXd--1">
          <mxGeometry relative="1" as="geometry" />
        </mxCell>
        <mxCell id="alPxiXhLDoP2k3WgBXd--4" value="R307S" style="shape=card;whiteSpace=wrap;html=1;fillColor=#eeeeee;strokeColor=#36393d;" vertex="1" parent="1">
          <mxGeometry x="150" y="410" width="60" height="80" as="geometry" />
        </mxCell>
        <mxCell id="alPxiXhLDoP2k3WgBXd--25" style="edgeStyle=orthogonalEdgeStyle;rounded=0;orthogonalLoop=1;jettySize=auto;html=1;exitX=0.5;exitY=0;exitDx=0;exitDy=0;entryX=0;entryY=1;entryDx=0;entryDy=0;endArrow=none;startFill=0;" edge="1" parent="1" source="alPxiXhLDoP2k3WgBXd--5" target="alPxiXhLDoP2k3WgBXd--1">
          <mxGeometry relative="1" as="geometry" />
        </mxCell>
        <mxCell id="alPxiXhLDoP2k3WgBXd--5" value="RGB" style="ellipse;whiteSpace=wrap;html=1;aspect=fixed;" vertex="1" parent="1">
          <mxGeometry x="510" y="460" width="30" height="30" as="geometry" />
        </mxCell>
        <mxCell id="alPxiXhLDoP2k3WgBXd--6" value="" style="whiteSpace=wrap;html=1;aspect=fixed;" vertex="1" parent="1">
          <mxGeometry x="360" y="360" width="60" height="60" as="geometry" />
        </mxCell>
        <mxCell id="alPxiXhLDoP2k3WgBXd--18" value="" style="ellipse;whiteSpace=wrap;html=1;aspect=fixed;" vertex="1" parent="1">
          <mxGeometry x="700" y="210" width="40" height="40" as="geometry" />
        </mxCell>
        <mxCell id="alPxiXhLDoP2k3WgBXd--19" value="" style="ellipse;whiteSpace=wrap;html=1;aspect=fixed;" vertex="1" parent="1">
          <mxGeometry x="660" y="210" width="40" height="40" as="geometry" />
        </mxCell>
        <mxCell id="alPxiXhLDoP2k3WgBXd--20" value="" style="ellipse;whiteSpace=wrap;html=1;aspect=fixed;" vertex="1" parent="1">
          <mxGeometry x="680" y="180" width="40" height="40" as="geometry" />
        </mxCell>
        <mxCell id="alPxiXhLDoP2k3WgBXd--23" style="edgeStyle=orthogonalEdgeStyle;rounded=0;orthogonalLoop=1;jettySize=auto;html=1;exitX=0;exitY=0;exitDx=0;exitDy=0;entryX=1;entryY=1;entryDx=0;entryDy=0;entryPerimeter=0;strokeColor=#B09500;fillColor=#e3c800;endArrow=none;startFill=0;" edge="1" parent="1" source="alPxiXhLDoP2k3WgBXd--1" target="alPxiXhLDoP2k3WgBXd--4">
          <mxGeometry relative="1" as="geometry" />
        </mxCell>
      </root>
    </mxGraphModel>
  </diagram>
</mxfile>
